<?xml version="1.0" encoding="UTF-8" standalone="no"?>
<!DOCTYPE svg PUBLIC "-//W3C//DTD SVG 1.1//EN" "http://www.w3.org/Graphics/SVG/1.1/DTD/svg11.dtd">
<svg version="1.1" xmlns="http://www.w3.org/2000/svg" xmlns:xlink="http://www.w3.org/1999/xlink" preserveAspectRatio="xMidYMid meet" viewBox="255.31941801169938 238.70859062319417 94.50000000000006 94.50000000000003" width="90" height="90"><defs><path d="M301.82 240.21C276.97 240.21 256.82 260.36 256.82 285.21C256.82 310.06 276.97 330.21 301.82 330.21C326.67 330.21 346.82 310.06 346.82 285.21C346.82 260.36 326.67 240.21 301.82 240.21Z" id="b1Vjix4KM4"></path><path d="M298.7 253.65L298.8 253.66L298.91 253.67L299.03 253.68L299.15 253.69L299.27 253.71L299.4 253.72L299.53 253.74L299.67 253.76L299.81 253.79L299.95 253.81L300.11 253.84L300.27 253.87L300.43 253.91L300.6 253.94L300.72 253.97L300.84 253.99L300.97 254.03L301.09 254.06L301.21 254.09L301.34 254.13L301.46 254.17L301.59 254.2L301.71 254.25L301.83 254.29L301.95 254.33L302.07 254.38L302.19 254.42L302.31 254.47L302.42 254.52L302.54 254.56L302.65 254.61L302.76 254.66L302.87 254.71L302.97 254.77L303.07 254.82L303.17 254.87L303.27 254.92L303.36 254.97L303.46 255.03L303.54 255.08L303.63 255.13L303.7 255.18L303.78 255.24L303.85 255.29L303.92 255.34L303.98 255.39L304.04 255.44L304.09 255.49L304.14 255.54L304.18 255.58L304.22 255.63L304.25 255.67L304.28 255.72L304.29 255.76L304.3 255.78L304.31 255.8L304.31 255.83L304.31 255.85L304.32 255.88L304.32 255.92L304.32 255.96L304.32 256L304.32 256.04L304.32 256.08L304.32 256.13L304.32 256.18L304.32 256.23L304.31 256.29L304.31 256.35L304.31 256.41L304.3 256.47L304.3 256.53L304.29 256.6L304.28 256.66L304.28 256.73L304.27 256.8L304.26 256.88L304.25 256.95L304.24 257.03L304.23 257.1L304.22 257.18L304.21 257.26L304.2 257.34L304.19 257.42L304.18 257.5L304.16 257.59L304.15 257.67L304.14 257.76L304.12 257.84L304.11 257.93L304.09 258.02L304.08 258.1L304.06 258.19L304.04 258.28L304.03 258.37L304.01 258.45L303.99 258.54L303.98 258.63L303.96 258.72L303.94 258.81L303.93 258.9L303.91 258.98L303.9 259.07L303.88 259.16L303.87 259.25L303.85 259.34L303.84 259.42L303.83 259.51L303.81 259.6L303.8 259.68L303.79 259.77L303.77 259.85L303.76 259.93L303.75 260.01L303.74 260.09L303.73 260.17L303.72 260.25L303.71 260.32L303.7 260.4L303.69 260.47L303.68 260.54L303.67 260.6L303.66 260.67L303.66 260.73L303.65 260.79L303.65 260.85L303.64 260.91L303.64 260.96L303.63 261.01L303.63 261.06L303.63 261.1L303.62 261.15L303.62 261.18L303.62 261.22L303.62 261.29L303.62 261.35L303.62 261.41L303.62 261.47L303.62 261.52L303.63 261.57L303.63 261.62L303.64 261.66L303.65 261.7L303.67 261.74L303.69 261.77L303.71 261.8L303.74 261.82L303.77 261.85L303.81 261.86L303.85 261.88L303.9 261.89L303.96 261.9L304.03 261.9L304.1 261.9L304.18 261.9L304.28 261.89L304.38 261.88L304.49 261.86L304.61 261.84L304.74 261.82L304.88 261.79L305.04 261.76L305.2 261.73L305.38 261.69L305.57 261.65L305.78 261.61L306 261.56L306.23 261.5L306.48 261.45L306.75 261.39L307.03 261.32L307.32 261.26L307.63 261.18L307.96 261.11L308.24 261.05L308.51 260.99L308.76 260.93L309.01 260.88L309.25 260.83L309.48 260.78L309.7 260.74L309.92 260.7L310.12 260.66L310.32 260.63L310.51 260.6L310.7 260.57L310.88 260.54L311.05 260.52L311.22 260.5L311.38 260.49L311.54 260.47L311.69 260.46L311.84 260.45L311.99 260.45L312.13 260.45L312.27 260.45L312.4 260.45L312.53 260.46L312.66 260.47L312.79 260.48L312.92 260.5L313.04 260.52L313.16 260.54L313.29 260.56L313.41 260.59L313.53 260.62L313.65 260.66L313.78 260.69L313.9 260.73L314.02 260.77L314.15 260.82L314.28 260.86L314.41 260.92L314.54 260.97L314.68 261.03L314.81 261.09L314.94 261.15L315.07 261.21L315.19 261.28L315.3 261.34L315.42 261.4L315.52 261.47L315.63 261.54L315.73 261.6L315.82 261.67L315.91 261.74L316 261.81L316.08 261.88L316.16 261.95L316.23 262.02L316.3 262.09L316.36 262.16L316.42 262.22L316.47 262.29L316.52 262.36L316.57 262.43L316.61 262.5L316.64 262.57L316.67 262.64L316.69 262.71L316.71 262.78L316.73 262.85L316.74 262.91L316.74 262.98L316.74 263.05L316.73 263.11L316.72 263.18L316.7 263.24L316.68 263.3L316.65 263.36L316.61 263.42L316.57 263.48L316.53 263.54L316.47 263.6L316.42 263.65L316.36 263.7L316.29 263.75L316.21 263.8L316.12 263.85L316.03 263.9L315.93 263.95L315.82 264L315.7 264.05L315.57 264.11L315.44 264.16L315.29 264.21L315.14 264.26L314.98 264.31L314.82 264.36L314.64 264.41L314.46 264.46L314.27 264.52L314.07 264.57L313.86 264.62L313.65 264.67L313.43 264.72L313.19 264.78L312.95 264.83L312.71 264.88L312.45 264.93L312.19 264.99L311.92 265.04L311.64 265.09L311.35 265.15L311.05 265.2L310.75 265.26L310.44 265.31L310.11 265.37L309.79 265.42L309.45 265.48L309.1 265.53L308.75 265.59L308.39 265.64L308.02 265.7L303.62 266.37L303.62 268.39L303.62 268.47L303.62 268.55L303.62 268.64L303.63 268.72L303.63 268.8L303.63 268.88L303.63 268.95L303.64 269.03L303.64 269.11L303.64 269.18L303.65 269.25L303.65 269.32L303.66 269.39L303.66 269.46L303.67 269.53L303.67 269.59L303.68 269.65L303.68 269.71L303.69 269.77L303.7 269.83L303.7 269.88L303.71 269.94L303.72 269.99L303.73 270.04L303.73 270.08L303.74 270.12L303.75 270.16L303.76 270.2L303.77 270.24L303.78 270.27L303.79 270.3L303.79 270.33L303.8 270.35L303.81 270.37L303.82 270.39L303.83 270.41L303.84 270.42L303.85 270.43L303.86 270.43L303.87 270.43L303.89 270.43L303.91 270.43L303.94 270.42L303.97 270.42L304.01 270.41L304.06 270.4L304.11 270.39L304.17 270.38L304.23 270.37L304.3 270.35L304.38 270.34L304.46 270.32L304.54 270.3L304.63 270.28L304.73 270.26L304.83 270.24L304.93 270.22L305.04 270.19L305.16 270.16L305.27 270.14L305.4 270.11L305.52 270.08L305.65 270.05L305.78 270.02L305.92 269.99L306.06 269.96L306.2 269.92L306.35 269.89L306.5 269.85L306.65 269.82L306.8 269.78L306.96 269.74L307.11 269.71L307.27 269.67L307.44 269.63L307.6 269.59L307.77 269.55L307.93 269.51L308.1 269.47L308.27 269.42L308.46 269.38L308.64 269.33L308.83 269.29L309.01 269.25L309.19 269.21L309.36 269.17L309.54 269.13L309.71 269.09L309.88 269.05L310.04 269.02L310.2 268.98L310.36 268.95L310.52 268.92L310.67 268.89L310.82 268.86L310.97 268.83L311.11 268.8L311.25 268.78L311.39 268.75L311.52 268.73L311.65 268.71L311.78 268.69L311.9 268.67L312.01 268.65L312.13 268.63L312.24 268.62L312.34 268.6L312.44 268.59L312.54 268.58L312.63 268.57L312.72 268.56L312.8 268.56L312.88 268.55L312.95 268.55L313.02 268.54L313.08 268.54L313.14 268.54L313.19 268.55L313.24 268.55L313.28 268.56L313.39 268.58L313.51 268.6L313.63 268.63L313.76 268.67L313.9 268.71L314.04 268.75L314.19 268.8L314.34 268.85L314.5 268.91L314.66 268.97L314.83 269.04L315 269.11L315.17 269.18L315.34 269.25L315.52 269.33L315.7 269.41L315.88 269.49L316.06 269.57L316.24 269.66L316.42 269.75L316.6 269.84L316.78 269.93L316.96 270.02L317.13 270.11L317.31 270.2L317.48 270.29L317.65 270.39L317.81 270.48L317.98 270.57L318.13 270.67L318.29 270.76L318.43 270.85L318.58 270.94L318.71 271.03L318.84 271.12L318.97 271.2L319.08 271.29L319.19 271.37L319.29 271.45L319.39 271.52L319.48 271.61L319.56 271.68L319.64 271.76L319.72 271.84L319.79 271.92L319.86 271.99L319.93 272.06L319.99 272.14L320.04 272.21L320.09 272.28L320.14 272.35L320.18 272.42L320.22 272.49L320.25 272.56L320.28 272.63L320.31 272.7L320.33 272.77L320.35 272.84L320.36 272.91L320.37 272.98L320.38 273.05L320.38 273.12L320.37 273.2L320.36 273.27L320.35 273.35L320.34 273.42L320.32 273.5L320.29 273.58L320.27 273.66L320.23 273.74L320.2 273.83L320.16 273.92L320.11 274L320.07 274.09L320.01 274.19L319.96 274.28L319.9 274.38L319.83 274.48L319.77 274.58L319.69 274.69L319.66 274.74L319.62 274.81L319.58 274.88L319.54 274.96L319.49 275.04L319.45 275.14L319.4 275.24L319.35 275.35L319.3 275.47L319.24 275.59L319.19 275.73L319.13 275.87L319.07 276.01L319.01 276.17L318.95 276.33L318.88 276.5L318.82 276.67L318.75 276.86L318.68 277.05L318.61 277.24L318.54 277.45L318.47 277.66L318.39 277.87L318.32 278.09L318.24 278.32L318.16 278.56L318.08 278.8L318 279.04L317.92 279.3L317.83 279.55L317.75 279.82L317.66 280.09L317.57 280.36L317.48 280.65L317.39 280.93L317.3 281.22L317.21 281.52L317.11 281.82L317.02 282.13L316.92 282.44L316.84 282.72L316.75 283L316.67 283.27L316.59 283.54L316.5 283.81L316.42 284.08L316.34 284.34L316.26 284.6L316.18 284.86L316.1 285.11L316.02 285.36L315.94 285.61L315.86 285.85L315.78 286.09L315.71 286.32L315.63 286.55L315.56 286.77L315.49 286.99L315.42 287.2L315.35 287.41L315.28 287.61L315.22 287.8L315.16 287.99L315.09 288.17L315.03 288.34L314.98 288.5L314.92 288.66L314.87 288.81L314.82 288.95L314.77 289.08L314.72 289.21L314.68 289.32L314.64 289.43L314.6 289.52L314.56 289.61L314.53 289.69L314.5 289.76L314.48 289.81L314.45 289.86L314.43 289.89L314.41 289.92L314.39 289.96L314.36 289.99L314.34 290.02L314.31 290.05L314.28 290.09L314.25 290.12L314.22 290.15L314.19 290.18L314.16 290.22L314.12 290.25L314.09 290.28L314.05 290.32L314.02 290.35L313.98 290.38L313.94 290.42L313.9 290.45L313.86 290.48L313.82 290.51L313.78 290.54L313.74 290.57L313.7 290.61L313.66 290.64L313.62 290.67L313.58 290.7L313.53 290.73L313.49 290.75L313.45 290.78L313.41 290.81L313.36 290.84L313.32 290.86L313.28 290.89L313.24 290.91L313.19 290.94L313.15 290.96L313.11 290.99L313.07 291.01L313.03 291.03L312.99 291.05L312.95 291.07L312.86 291.1L312.76 291.14L312.67 291.17L312.59 291.19L312.5 291.22L312.41 291.24L312.33 291.26L312.25 291.27L312.16 291.28L312.08 291.29L312 291.3L311.92 291.3L311.85 291.3L311.77 291.29L311.7 291.29L311.62 291.28L311.55 291.26L311.48 291.25L311.41 291.23L311.34 291.2L311.28 291.18L311.21 291.15L311.15 291.12L311.09 291.09L311.03 291.05L310.97 291.01L310.91 290.97L310.85 290.92L310.8 290.87L310.74 290.82L310.69 290.77L310.64 290.71L310.59 290.65L310.54 290.58L310.5 290.52L310.45 290.45L310.41 290.38L310.37 290.3L310.33 290.22L310.29 290.14L310.26 290.09L310.24 290.04L310.22 289.99L310.19 289.95L310.17 289.9L310.15 289.86L310.13 289.83L310.1 289.79L310.08 289.76L310.05 289.73L310.03 289.7L310 289.67L309.97 289.65L309.93 289.62L309.9 289.6L309.86 289.59L309.82 289.57L309.77 289.56L309.73 289.54L309.67 289.53L309.62 289.52L309.56 289.52L309.49 289.51L309.42 289.51L309.35 289.5L309.27 289.5L309.18 289.5L309.09 289.5L308.99 289.51L308.88 289.51L308.77 289.52L308.65 289.52L308.52 289.53L308.39 289.54L308.24 289.55L308.09 289.56L307.93 289.57L307.77 289.58L307.59 289.6L307.4 289.61L307.09 289.63L306.79 289.66L306.51 289.67L306.24 289.69L305.99 289.71L305.75 289.73L305.53 289.75L305.32 289.76L305.13 289.78L304.95 289.8L304.78 289.82L304.62 289.84L304.48 289.86L304.35 289.89L304.22 289.91L304.11 289.94L304.01 289.97L303.92 290L303.83 290.04L303.76 290.08L303.69 290.13L303.63 290.17L303.58 290.22L303.53 290.28L303.49 290.34L303.46 290.41L303.43 290.48L303.4 290.56L303.39 290.64L303.37 290.73L303.36 290.83L303.35 290.93L303.35 291.04L303.34 291.15L303.34 291.28L303.34 291.41L303.34 291.55L303.34 291.7L303.34 291.85L303.34 292.02L303.34 292.13L303.34 292.24L303.34 292.34L303.35 292.43L303.35 292.53L303.35 292.62L303.35 292.71L303.35 292.79L303.36 292.87L303.36 292.95L303.36 293.02L303.37 293.09L303.37 293.16L303.38 293.22L303.39 293.28L303.39 293.34L303.4 293.4L303.41 293.45L303.41 293.5L303.42 293.54L303.43 293.59L303.44 293.63L303.45 293.66L303.46 293.7L303.48 293.73L303.49 293.76L303.5 293.79L303.51 293.82L303.53 293.84L303.54 293.86L303.56 293.88L303.58 293.89L303.59 293.91L303.61 293.92L303.63 293.93L303.65 293.94L303.67 293.94L303.69 293.95L303.71 293.95L303.73 293.95L303.86 293.95L304.02 293.94L304.23 293.93L304.47 293.92L304.75 293.9L305.07 293.88L305.41 293.85L305.79 293.82L306.19 293.79L306.62 293.76L307.07 293.72L307.54 293.68L308.04 293.64L308.55 293.6L309.07 293.55L309.61 293.51L310.16 293.46L310.72 293.41L311.28 293.36L311.85 293.3L312.42 293.25L312.99 293.2L313.57 293.15L314.13 293.09L314.69 293.04L315.24 292.99L315.79 292.94L316.32 292.88L316.83 292.83L317.33 292.78L317.81 292.73L318.27 292.69L318.71 292.64L319.12 292.6L319.51 292.56L319.86 292.52L320.19 292.48L320.48 292.44L320.74 292.41L320.95 292.38L321.22 292.35L321.48 292.31L321.72 292.28L321.96 292.25L322.19 292.22L322.4 292.2L322.61 292.18L322.81 292.16L323.01 292.14L323.19 292.12L323.37 292.11L323.54 292.1L323.71 292.09L323.87 292.09L324.03 292.09L324.18 292.09L324.32 292.09L324.47 292.1L324.61 292.11L324.74 292.13L324.88 292.14L325.01 292.16L325.14 292.18L325.27 292.21L325.4 292.24L325.53 292.27L325.66 292.31L325.79 292.34L325.92 292.39L326.05 292.43L326.18 292.48L326.32 292.53L326.46 292.59L326.61 292.65L326.75 292.71L326.9 292.78L327.06 292.85L327.22 292.92L327.39 293L327.56 293.08L327.71 293.15L327.86 293.23L328 293.3L328.14 293.37L328.28 293.45L328.42 293.53L328.55 293.61L328.68 293.69L328.8 293.77L328.92 293.85L329.04 293.93L329.16 294.02L329.27 294.1L329.38 294.19L329.48 294.27L329.58 294.36L329.68 294.45L329.77 294.53L329.86 294.62L329.94 294.71L330.02 294.8L330.1 294.89L330.17 294.98L330.24 295.07L330.31 295.16L330.37 295.25L330.42 295.34L330.47 295.42L330.52 295.51L330.56 295.6L330.6 295.69L330.63 295.77L330.66 295.86L330.69 295.95L330.71 296.03L330.72 296.12L330.73 296.2L330.73 296.28L330.73 296.36L330.73 296.44L330.71 296.54L330.7 296.63L330.68 296.72L330.65 296.8L330.63 296.88L330.6 296.96L330.56 297.03L330.52 297.1L330.47 297.16L330.41 297.22L330.35 297.28L330.27 297.33L330.19 297.38L330.11 297.42L330.01 297.46L329.9 297.5L329.78 297.54L329.65 297.57L329.5 297.6L329.35 297.63L329.18 297.65L329 297.67L328.8 297.69L328.59 297.71L328.37 297.72L328.13 297.73L327.87 297.74L327.59 297.75L327.3 297.75L326.99 297.75L326.67 297.75L326.32 297.75L325.95 297.75L325.57 297.74L325.16 297.73L324.73 297.72L324.29 297.71L323.81 297.7L323.32 297.69L322.8 297.68L322.36 297.67L321.89 297.66L321.4 297.65L320.9 297.65L320.38 297.65L319.85 297.65L319.3 297.65L318.74 297.65L318.17 297.66L317.59 297.66L317.01 297.67L316.42 297.68L315.82 297.69L315.23 297.7L314.63 297.72L314.03 297.73L313.43 297.75L312.84 297.76L312.26 297.78L311.68 297.8L311.1 297.82L310.54 297.84L309.99 297.86L309.45 297.88L308.93 297.91L308.42 297.93L307.93 297.96L307.46 297.98L307.01 298.01L306.58 298.03L306.18 298.06L305.8 298.09L305.45 298.12L305.12 298.15L304.83 298.17L304.56 298.2L304.33 298.23L304.13 298.26L303.97 298.29L303.85 298.32L303.81 298.33L303.78 298.34L303.75 298.36L303.72 298.37L303.7 298.39L303.67 298.41L303.65 298.43L303.62 298.46L303.6 298.48L303.58 298.51L303.56 298.55L303.54 298.58L303.52 298.62L303.51 298.67L303.49 298.72L303.48 298.77L303.46 298.83L303.45 298.89L303.44 298.96L303.43 299.03L303.42 299.1L303.41 299.19L303.4 299.28L303.39 299.37L303.38 299.47L303.38 299.58L303.37 299.69L303.37 299.81L303.36 299.94L303.36 300.08L303.36 300.22L303.35 300.37L303.35 300.53L303.35 300.69L303.35 300.87L303.34 301.05L303.34 301.24L303.34 301.45L303.34 301.66L303.34 301.88L303.34 302.15L303.34 302.44L303.33 302.73L303.33 303.04L303.32 303.35L303.3 303.67L303.29 304L303.27 304.33L303.26 304.68L303.24 305.02L303.22 305.37L303.2 305.72L303.17 306.08L303.15 306.43L303.12 306.79L303.09 307.15L303.06 307.51L303.03 307.87L303 308.22L302.97 308.57L302.94 308.92L302.9 309.26L302.87 309.6L302.83 309.94L302.8 310.26L302.76 310.58L302.72 310.89L302.69 311.2L302.65 311.49L302.61 311.77L302.57 312.04L302.53 312.3L302.49 312.55L302.45 312.78L302.42 313L302.38 313.21L302.34 313.4L302.3 313.57L302.26 313.72L302.22 313.86L302.19 313.97L302.16 314.07L302.12 314.18L302.08 314.29L302.04 314.4L302 314.5L301.95 314.61L301.9 314.71L301.86 314.82L301.81 314.92L301.76 315.02L301.71 315.12L301.65 315.22L301.6 315.31L301.54 315.41L301.49 315.5L301.43 315.59L301.37 315.68L301.32 315.77L301.26 315.85L301.2 315.93L301.14 316.01L301.08 316.09L301.02 316.16L300.96 316.23L300.9 316.29L300.84 316.35L300.78 316.41L300.72 316.47L300.66 316.52L300.61 316.56L300.55 316.61L300.49 316.64L300.44 316.68L300.38 316.71L300.33 316.73L300.27 316.75L300.22 316.76L300.17 316.77L300.12 316.77L300.1 316.77L300.08 316.77L300.05 316.77L300.03 316.76L300 316.75L299.98 316.75L299.95 316.74L299.92 316.73L299.9 316.71L299.87 316.7L299.84 316.69L299.81 316.67L299.79 316.65L299.76 316.64L299.73 316.62L299.7 316.6L299.67 316.57L299.64 316.55L299.62 316.53L299.59 316.5L299.56 316.48L299.53 316.45L299.5 316.42L299.47 316.39L299.44 316.36L299.41 316.33L299.39 316.3L299.36 316.26L299.33 316.23L299.3 316.19L299.27 316.16L299.24 316.12L299.22 316.08L299.19 316.04L299.16 316L299.13 315.96L299.11 315.92L299.08 315.88L299.06 315.84L299.03 315.79L298.99 315.72L298.95 315.66L298.91 315.59L298.88 315.52L298.84 315.45L298.81 315.37L298.78 315.3L298.75 315.22L298.73 315.14L298.7 315.05L298.68 314.96L298.65 314.86L298.63 314.75L298.61 314.63L298.59 314.51L298.58 314.38L298.56 314.24L298.54 314.09L298.53 313.93L298.52 313.75L298.5 313.57L298.49 313.37L298.48 313.15L298.47 312.93L298.46 312.68L298.45 312.42L298.44 312.15L298.44 311.86L298.43 311.55L298.42 311.22L298.41 310.87L298.41 310.51L298.4 310.12L298.39 309.71L298.39 309.28L298.38 308.83L298.38 308.35L298.37 307.85L298.37 307.33L298.36 306.78L298.25 298.71L297.24 298.85L297.19 298.86L297.14 298.86L297.09 298.87L297.02 298.88L296.96 298.88L296.88 298.89L296.8 298.9L296.72 298.91L296.63 298.92L296.54 298.93L296.44 298.94L296.34 298.96L296.24 298.97L296.13 298.98L296.02 298.99L295.78 299.02L295.65 299.04L295.53 299.05L295.4 299.07L295.27 299.09L295.13 299.1L294.99 299.12L294.85 299.13L294.71 299.15L294.57 299.17L294.42 299.19L294.27 299.2L294.12 299.22L293.97 299.24L293.82 299.26L293.67 299.27L293.51 299.29L293.36 299.31L293.2 299.33L293.05 299.34L292.89 299.36L292.73 299.38L292.58 299.4L292.42 299.41L292.07 299.45L291.72 299.5L291.37 299.54L291.03 299.58L290.7 299.62L290.37 299.67L290.04 299.71L289.72 299.75L289.4 299.8L289.09 299.84L288.78 299.88L288.48 299.93L288.18 299.97L287.88 300.01L287.59 300.06L287.3 300.1L287.02 300.15L286.74 300.19L286.46 300.24L286.19 300.28L285.92 300.33L285.66 300.38L285.39 300.42L285.14 300.47L284.88 300.52L284.63 300.56L284.38 300.61L284.14 300.66L283.9 300.71L283.66 300.75L283.43 300.8L283.2 300.85L282.97 300.9L282.74 300.95L282.52 301L282.3 301.05L282.08 301.1L281.87 301.16L281.66 301.21L281.45 301.26L281.23 301.31L281.03 301.36L280.83 301.41L280.64 301.45L280.46 301.5L280.28 301.53L280.11 301.57L279.95 301.6L279.79 301.63L279.64 301.65L279.5 301.68L279.35 301.7L279.22 301.71L279.09 301.72L278.96 301.73L278.83 301.74L278.71 301.74L278.59 301.74L278.48 301.73L278.36 301.73L278.25 301.71L278.14 301.7L278.03 301.68L277.92 301.66L277.81 301.63L277.71 301.6L277.6 301.57L277.49 301.53L277.38 301.49L277.27 301.45L277.16 301.4L277.04 301.34L276.93 301.29L276.81 301.23L276.68 301.16L276.56 301.1L276.43 301.02L276.3 300.95L276.16 300.87L276.01 300.78L275.85 300.68L275.68 300.58L275.53 300.49L275.37 300.39L275.22 300.29L275.08 300.2L274.94 300.1L274.8 300.01L274.67 299.92L274.55 299.83L274.42 299.74L274.31 299.65L274.19 299.56L274.09 299.48L273.98 299.39L273.89 299.31L273.79 299.23L273.7 299.15L273.62 299.06L273.54 298.99L273.47 298.91L273.4 298.83L273.33 298.75L273.27 298.68L273.21 298.61L273.16 298.53L273.11 298.46L273.07 298.39L273.04 298.32L273 298.26L272.97 298.19L272.95 298.12L272.93 298.06L272.92 298L272.91 297.94L272.91 297.88L272.91 297.82L272.91 297.76L272.92 297.7L272.93 297.65L272.96 297.59L272.98 297.53L273.01 297.47L273.05 297.42L273.09 297.37L273.13 297.32L273.17 297.27L273.22 297.22L273.28 297.18L273.34 297.13L273.41 297.09L273.48 297.05L273.55 297.01L273.64 296.97L273.72 296.94L273.82 296.9L273.92 296.87L274.02 296.83L274.14 296.8L274.25 296.77L274.38 296.74L274.51 296.72L274.65 296.69L274.8 296.66L274.95 296.64L275.12 296.62L275.29 296.59L275.46 296.57L275.65 296.55L275.84 296.53L276.05 296.51L276.26 296.49L276.48 296.47L276.71 296.46L276.95 296.44L277.19 296.42L277.45 296.41L277.72 296.39L278 296.38L278.28 296.36L278.43 296.35L278.58 296.35L278.74 296.34L278.91 296.33L279.09 296.31L279.28 296.3L279.47 296.29L279.67 296.28L279.88 296.26L280.1 296.24L280.32 296.23L280.55 296.21L280.78 296.19L281.02 296.17L281.27 296.15L281.51 296.13L281.77 296.11L282.03 296.09L282.29 296.07L282.55 296.05L282.82 296.02L283.09 296L283.37 295.97L283.64 295.95L283.92 295.92L284.2 295.9L284.48 295.87L284.76 295.85L285.04 295.82L285.32 295.79L285.6 295.77L285.89 295.74L286.17 295.71L286.45 295.68L286.72 295.66L287 295.63L287.28 295.6L287.55 295.57L287.82 295.55L288.08 295.52L288.35 295.49L288.62 295.46L288.88 295.43L289.15 295.4L289.42 295.37L289.68 295.34L289.95 295.32L290.21 295.29L290.48 295.26L290.74 295.23L291 295.2L291.25 295.17L291.51 295.15L291.76 295.12L292.01 295.09L292.25 295.07L292.49 295.04L292.73 295.02L292.96 294.99L293.19 294.97L293.41 294.94L293.63 294.92L293.85 294.9L294.05 294.88L294.26 294.85L294.45 294.83L294.64 294.81L294.83 294.79L295 294.77L295.17 294.76L295.34 294.74L295.49 294.72L295.64 294.71L295.78 294.69L295.91 294.68L296.14 294.65L296.43 294.62L298.3 294.46L298.3 292.36L298.3 292.22L298.3 292.09L298.3 291.97L298.3 291.85L298.3 291.74L298.3 291.63L298.3 291.53L298.29 291.43L298.29 291.34L298.29 291.26L298.28 291.17L298.28 291.1L298.27 291.03L298.27 290.96L298.26 290.9L298.26 290.84L298.25 290.78L298.24 290.73L298.23 290.69L298.22 290.64L298.21 290.61L298.2 290.57L298.19 290.54L298.18 290.51L298.16 290.49L298.15 290.46L298.13 290.45L298.11 290.43L298.1 290.42L298.08 290.41L298.06 290.4L298.04 290.39L298.02 290.39L297.99 290.39L297.97 290.39L297.94 290.39L297.92 290.4L297.89 290.41L297.86 290.41L297.83 290.42L297.8 290.43L297.78 290.44L297.74 290.44L297.71 290.45L297.67 290.46L297.62 290.47L297.57 290.47L297.52 290.48L297.46 290.49L297.4 290.5L297.34 290.5L297.27 290.51L297.2 290.52L297.13 290.53L297.05 290.54L296.97 290.55L296.89 290.56L296.81 290.56L296.72 290.57L296.63 290.58L296.53 290.59L296.44 290.6L296.34 290.61L296.24 290.62L296.14 290.63L296.03 290.64L295.93 290.65L295.82 290.65L295.71 290.66L295.6 290.67L295.49 290.68L295.38 290.69L295.26 290.7L295.15 290.71L295.03 290.72L294.91 290.73L294.8 290.73L294.68 290.74L294.56 290.75L294.44 290.76L294.26 290.77L294.09 290.78L293.93 290.79L293.77 290.8L293.62 290.81L293.48 290.82L293.34 290.84L293.21 290.85L293.08 290.86L292.96 290.87L292.85 290.88L292.74 290.89L292.64 290.91L292.54 290.92L292.45 290.93L292.36 290.95L292.27 290.96L292.19 290.97L292.12 290.99L292.05 291.01L291.98 291.02L291.92 291.04L291.86 291.05L291.8 291.07L291.75 291.09L291.7 291.11L291.66 291.13L291.61 291.15L291.57 291.17L291.54 291.19L291.5 291.22L291.47 291.24L291.44 291.26L291.41 291.29L291.38 291.32L291.36 291.34L291.34 291.37L291.31 291.4L291.29 291.43L291.27 291.46L291.24 291.52L291.21 291.58L291.17 291.63L291.12 291.68L291.08 291.72L291.03 291.76L290.98 291.8L290.92 291.84L290.87 291.87L290.81 291.9L290.75 291.92L290.69 291.95L290.63 291.96L290.56 291.98L290.5 291.99L290.43 292L290.36 292.01L290.29 292.01L290.22 292.01L290.15 292L290.08 292L290 291.98L289.93 291.97L289.86 291.95L289.79 291.93L289.72 291.91L289.64 291.88L289.57 291.86L289.5 291.82L289.43 291.79L289.36 291.75L289.3 291.71L289.23 291.66L289.16 291.61L289.1 291.56L289.04 291.51L288.98 291.45L288.92 291.39L288.86 291.33L288.81 291.26L288.75 291.19L288.69 291.11L288.64 291.03L288.58 290.95L288.53 290.87L288.48 290.78L288.43 290.7L288.38 290.61L288.34 290.51L288.29 290.42L288.25 290.31L288.2 290.21L288.16 290.09L288.12 289.98L288.08 289.85L288.04 289.72L288 289.58L287.96 289.43L287.92 289.28L287.88 289.12L287.84 288.94L287.8 288.76L287.76 288.57L287.72 288.37L287.68 288.15L287.64 287.93L287.6 287.69L287.55 287.44L287.51 287.18L287.47 286.9L287.42 286.61L287.38 286.31L287.33 285.99L287.28 285.66L287.23 285.31L287.18 284.94L287.13 284.56L287.08 284.16L287.02 283.75L286.96 283.31L286.9 282.89L286.85 282.48L286.79 282.08L286.74 281.7L286.68 281.33L286.63 280.98L286.58 280.64L286.53 280.32L286.47 280L286.42 279.7L286.37 279.41L286.32 279.13L286.27 278.87L286.22 278.61L286.18 278.37L286.13 278.14L286.08 277.92L286.03 277.7L285.98 277.5L285.93 277.31L285.88 277.12L285.83 276.95L285.77 276.78L285.72 276.62L285.67 276.47L285.61 276.32L285.56 276.19L285.5 276.06L285.45 275.93L285.39 275.82L285.33 275.7L285.27 275.6L285.21 275.5L285.14 275.4L285.08 275.31L285.01 275.22L284.94 275.14L284.87 275.06L284.8 274.99L284.72 274.91L284.66 274.85L284.6 274.79L284.55 274.73L284.49 274.66L284.44 274.6L284.4 274.53L284.35 274.46L284.31 274.39L284.27 274.32L284.24 274.25L284.2 274.17L284.17 274.1L284.15 274.03L284.12 273.96L284.1 273.88L284.08 273.81L284.07 273.74L284.05 273.66L284.04 273.59L284.04 273.52L284.03 273.45L284.03 273.38L284.03 273.31L284.04 273.24L284.05 273.17L284.06 273.11L284.07 273.05L284.09 272.98L284.11 272.92L284.13 272.86L284.16 272.81L284.19 272.75L284.22 272.7L284.25 272.65L284.29 272.61L284.33 272.56L284.38 272.52L284.42 272.49L284.47 272.45L284.53 272.42L284.55 272.41L284.58 272.4L284.61 272.38L284.64 272.37L284.68 272.36L284.71 272.35L284.75 272.34L284.8 272.33L284.84 272.32L284.89 272.32L284.94 272.31L284.99 272.3L285.04 272.29L285.1 272.29L285.15 272.28L285.21 272.28L285.27 272.27L285.34 272.27L285.4 272.26L285.46 272.26L285.53 272.26L285.6 272.25L285.67 272.25L285.74 272.25L285.81 272.25L285.89 272.25L285.96 272.25L286.04 272.25L286.11 272.25L286.19 272.25L286.27 272.26L286.34 272.26L286.42 272.26L286.5 272.27L286.58 272.27L286.66 272.28L286.75 272.29L286.83 272.29L286.91 272.3L286.99 272.31L287.12 272.32L287.27 272.33L287.42 272.33L287.58 272.34L287.74 272.34L287.92 272.34L288.1 272.34L288.3 272.34L288.5 272.34L288.7 272.34L288.92 272.33L289.14 272.33L289.36 272.32L289.6 272.31L289.83 272.3L290.08 272.29L290.33 272.27L290.58 272.26L290.84 272.24L291.11 272.22L291.38 272.21L291.65 272.19L291.93 272.17L292.21 272.14L292.49 272.12L292.78 272.09L293.07 272.07L293.36 272.04L293.66 272.01L293.95 271.99L294.25 271.96L294.55 271.92L294.85 271.89L295.16 271.86L295.46 271.82L295.77 271.79L296.07 271.75L296.38 271.71L296.68 271.68L296.99 271.64L298.3 271.47L298.3 267.07L297.41 267.07L297.37 267.07L297.32 267.08L297.27 267.08L297.22 267.08L297.17 267.09L297.11 267.09L297.04 267.09L296.97 267.1L296.9 267.1L296.83 267.11L296.75 267.11L296.67 267.12L296.59 267.12L296.5 267.13L296.41 267.13L296.32 267.14L296.23 267.15L296.13 267.15L296.03 267.16L295.93 267.17L295.83 267.17L295.73 267.18L295.62 267.19L295.51 267.2L295.41 267.2L295.29 267.21L295.18 267.22L295.07 267.23L294.96 267.23L294.84 267.24L294.73 267.25L294.61 267.26L294.5 267.27L294.38 267.27L294.26 267.28L294.15 267.29L294.03 267.3L293.91 267.31L293.8 267.32L293.68 267.32L293.39 267.35L293.11 267.37L292.83 267.38L292.56 267.4L292.3 267.41L292.04 267.42L291.79 267.43L291.54 267.43L291.3 267.44L291.07 267.44L290.84 267.44L290.61 267.43L290.4 267.43L290.18 267.42L289.98 267.41L289.78 267.39L289.58 267.38L289.39 267.36L289.21 267.34L289.03 267.32L288.85 267.29L288.69 267.26L288.52 267.23L288.36 267.2L288.21 267.17L288.06 267.13L287.92 267.09L287.78 267.05L287.65 267L287.52 266.95L287.4 266.9L287.28 266.85L287.17 266.8L287.06 266.74L286.96 266.68L286.86 266.62L286.77 266.55L286.68 266.49L286.59 266.42L286.51 266.34L286.39 266.22L286.28 266.11L286.17 265.99L286.08 265.88L285.99 265.78L285.92 265.68L285.86 265.58L285.8 265.48L285.76 265.39L285.73 265.31L285.71 265.22L285.7 265.14L285.7 265.07L285.71 264.99L285.74 264.92L285.77 264.85L285.82 264.78L285.88 264.72L285.96 264.66L286.05 264.6L286.15 264.54L286.26 264.49L286.39 264.44L286.52 264.39L286.68 264.34L286.85 264.29L287.03 264.24L287.22 264.2L287.43 264.16L287.66 264.12L287.9 264.07L288.15 264.04L288.42 264L288.7 263.96L289 263.92L289.32 263.88L289.65 263.85L290 263.81L290.36 263.78L290.74 263.74L290.88 263.73L291.01 263.71L291.15 263.7L291.29 263.69L291.43 263.67L291.58 263.66L291.72 263.64L291.87 263.63L292.01 263.61L292.16 263.6L292.31 263.58L292.46 263.56L292.61 263.55L292.76 263.53L292.91 263.52L293.06 263.5L293.21 263.48L293.36 263.47L293.5 263.45L293.65 263.43L293.8 263.42L293.94 263.4L294.08 263.38L294.23 263.37L294.37 263.35L294.5 263.33L294.64 263.32L294.77 263.3L294.9 263.28L295.03 263.27L295.16 263.25L295.28 263.24L295.4 263.22L295.51 263.21L295.62 263.19L295.73 263.18L295.83 263.16L295.93 263.15L296.03 263.14L296.12 263.12L296.27 263.1L296.41 263.08L296.54 263.06L296.67 263.05L296.79 263.03L296.9 263.01L297.01 262.99L297.12 262.97L297.21 262.96L297.3 262.94L297.39 262.92L297.47 262.91L297.55 262.89L297.62 262.87L297.68 262.86L297.74 262.84L297.8 262.82L297.85 262.8L297.9 262.79L297.94 262.77L297.98 262.75L298.02 262.73L298.05 262.71L298.08 262.69L298.1 262.66L298.13 262.64L298.15 262.62L298.16 262.59L298.17 262.57L298.19 262.54L298.19 262.51L298.2 262.48L298.21 262.45L298.21 262.42L298.21 262.39L298.21 262.35L298.21 262.32L298.2 262.28L298.2 262.24L298.19 262.2L298.18 262.18L298.18 262.15L298.17 262.12L298.16 262.09L298.16 262.06L298.15 262.02L298.14 261.98L298.14 261.94L298.13 261.9L298.12 261.86L298.12 261.82L298.11 261.77L298.1 261.72L298.09 261.67L298.09 261.62L298.08 261.57L298.07 261.52L298.06 261.46L298.06 261.41L298.05 261.35L298.04 261.3L298.03 261.24L298.02 261.18L298.02 261.12L298.01 261.06L298 261L297.99 260.94L297.98 260.88L297.97 260.81L297.95 260.63L297.94 260.56L297.93 260.5L297.92 260.44L297.92 260.38L297.91 260.31L297.9 260.25L297.89 260.19L297.88 260.13L297.88 260.07L297.87 260L297.86 259.93L297.85 259.87L297.84 259.79L297.83 259.72L297.82 259.65L297.8 259.57L297.79 259.49L297.78 259.41L297.76 259.33L297.75 259.25L297.73 259.16L297.71 259.08L297.7 258.99L297.68 258.9L297.66 258.82L297.64 258.73L297.62 258.64L297.6 258.55L297.58 258.46L297.56 258.37L297.54 258.28L297.52 258.19L297.5 258.1L297.48 258.01L297.45 257.92L297.43 257.83L297.41 257.74L297.39 257.65L297.36 257.56L297.34 257.48L297.32 257.39L297.29 257.31L297.27 257.22L297.25 257.14L297.22 257.06L297.2 256.98L297.18 256.9L297.15 256.82L297.12 256.7L297.08 256.58L297.04 256.47L297.01 256.36L296.98 256.25L296.95 256.15L296.92 256.06L296.9 255.97L296.88 255.88L296.85 255.8L296.83 255.72L296.82 255.65L296.8 255.58L296.79 255.51L296.77 255.45L296.76 255.38L296.76 255.33L296.75 255.27L296.74 255.22L296.74 255.17L296.74 255.12L296.74 255.07L296.74 255.02L296.75 254.98L296.75 254.93L296.76 254.89L296.77 254.85L296.78 254.81L296.79 254.77L296.81 254.73L296.82 254.69L296.84 254.65L296.86 254.61L296.88 254.57L296.91 254.53L296.93 254.49L296.96 254.44L296.98 254.4L297.01 254.35L297.04 254.3L297.08 254.25L297.12 254.2L297.16 254.15L297.2 254.1L297.25 254.05L297.29 254.01L297.34 253.97L297.39 253.93L297.44 253.89L297.49 253.86L297.54 253.83L297.6 253.8L297.66 253.78L297.72 253.75L297.78 253.73L297.85 253.71L297.92 253.7L297.99 253.68L298.07 253.67L298.15 253.66L298.23 253.65L298.32 253.65L298.41 253.65L298.5 253.64L298.6 253.65L298.7 253.65ZM295.67 282.84L294.34 282.95L293.21 283L292.16 283.05L291.67 283.34L291.58 284.14L291.75 285.75L291.95 287.23L293.23 287.23L293.88 287.22L294.69 287.18L295.58 287.11L296.43 287.04L298.3 286.87L298.3 284.68L298.29 283.82L298.25 283.13L298.18 282.67L298.11 282.5L296.99 282.68L295.67 282.84ZM307.28 281.3L305.14 281.59L303.99 281.77L303.64 281.91L303.44 282.22L303.36 282.87L303.34 284.01L303.36 284.82L303.4 285.49L303.47 285.95L303.57 286.11L303.81 286.09L304.31 286.02L305.01 285.94L305.83 285.83L306.82 285.73L307.67 285.7L308.41 285.75L309.03 285.86L309.46 285.96L309.83 286.02L310.11 286.04L310.26 286L310.52 285.24L310.92 283.7L311.3 282.09L311.46 281.13L311.43 281.01L311.36 280.91L311.25 280.84L311.13 280.82L309.56 281L307.28 281.3ZM296.82 275L295.9 275.07L294.77 275.17L293.57 275.28L290.66 275.56L290.85 277.52L290.94 278.29L291.01 278.94L291.07 279.38L291.11 279.56L291.4 279.54L292.17 279.46L293.3 279.32L294.66 279.14L295.71 279.01L298.16 278.69L298.25 276.79L298.33 274.91L297.41 274.97L296.82 275ZM306.64 273.63L304.67 273.93L303.71 274.18L303.51 274.85L303.4 276.05L303.39 277.2L303.51 277.71L303.79 277.68L304.35 277.59L305.13 277.45L306.03 277.29L307.25 277.1L308.2 277.04L309.07 277.09L310.09 277.26L310.79 277.41L311.39 277.51L311.81 277.57L311.99 277.57L312.02 277.42L312.06 277.01L312.09 276.34L312.13 275.42L312.16 273.37L310.62 273.32L308.87 273.4L306.64 273.63Z" id="d1nO4CaNty"></path></defs><g><g><use xlink:href="#b1Vjix4KM4" opacity="1" fill="#ffffff" fill-opacity="1"></use><g><use xlink:href="#b1Vjix4KM4" opacity="1" fill-opacity="0" stroke="#000000" stroke-width="3" stroke-opacity="1"></use></g></g><g><use xlink:href="#d1nO4CaNty" opacity="1" fill="#000000" fill-opacity="1"></use><g><use xlink:href="#d1nO4CaNty" opacity="1" fill-opacity="0" stroke="#000000" stroke-width="1" stroke-opacity="0"></use></g></g></g></svg>